<?xml version="1.0" encoding="utf-8"?>
<!-- Generator: Adobe Illustrator 21.0.0, SVG Export Plug-In . SVG Version: 6.00 Build 0)  -->
<svg version="1.1" id="Layer_1" xmlns="http://www.w3.org/2000/svg" xmlns:xlink="http://www.w3.org/1999/xlink" x="0px" y="0px"
	 viewBox="0 0 512 512" style="enable-background:new 0 0 512 512;" xml:space="preserve">
<style type="text/css">
	.st0{fill:#FFFFFF;}
</style>
<g>
	<path class="st0" d="M382.6,398.5v-20.9c0-3.3-1.6-4.9-4.9-4.9h-25l-34.5-67.3c-7.7-14.2-14.1-23.4-19.3-27.5
		c40.2-10.7,60.3-37.5,60.3-80.4c0-28.2-9.2-50-27.5-65.4c-18.3-15.5-42.1-23.2-71.4-23.2H134c-3.6,0-5.3,1.6-5.3,4.9v20.9
		c0,3.3,1.8,4.9,5.3,4.9h31.2v233H134c-3.6,0-5.3,1.6-5.3,4.9v20.9c0,3.3,1.8,4.9,5.3,4.9h103.8c3.3,0,4.9-1.6,4.9-4.9v-20.9
		c0-3.3-1.6-4.9-4.9-4.9h-36.9v-87.8H253c6.6,0.3,11.7,2.1,15.4,5.3c3.7,3.3,7.2,8.3,10.5,15.2l38.6,78.4
		c6.6,13.1,14.8,19.7,24.6,19.7h35.7C381,403.4,382.6,401.8,382.6,398.5z M253.4,255.7h-52.5V139.6h52.5c46.5,0,69.7,19.7,69.7,59.1
		C323.1,236.7,299.9,255.7,253.4,255.7z"/>
	<path class="st0" d="M512,246.8v16.4c0,5-2.9,7.4-8.8,7.4c-5.8,0-13.1,5.7-21.7,17.2c-8.7,11.5-13,26.1-13,43.7v63.6
		c0,55.1-29.7,82.7-89,82.7c-5,0-7.4-2.3-7.4-6.9v-27.6c0-4.6,2.5-6.9,7.4-6.9c15.5,0,26.8-3.4,33.9-10.3
		c7.1-6.9,10.6-18.5,10.6-34.7v-59.4c0-29.3,11.5-51.9,34.4-67.8v-18c-2.5-1.4-5.6-3.8-9.5-7.1s-9-10.9-15.4-22.5
		c-6.4-11.7-9.5-24.6-9.5-38.7v-56.2c0-16.3-3.5-28-10.6-35.3c-7.1-7.2-18.4-10.9-33.9-10.9c-5,0-7.4-2.3-7.4-6.9V41.1
		c0-4.6,2.5-6.9,7.4-6.9c59.4,0,89,27.9,89,83.8v60.4c0,18,4.3,32.7,12.7,44c8.5,11.3,15.7,17,21.7,17.2
		C509,239.8,512,242.2,512,246.8z"/>
	<path class="st0" d="M140,443.5V471c0,4.6-2.3,6.9-6.9,6.9c-59.4,0-89-27.6-89-82.7v-63.6c0-17.7-4.3-32.2-13-43.7
		c-8.7-11.5-16-17.2-22-17.2c-6,0-9-2.5-9-7.4v-16.4c0-4.6,3-7,9-7.2c6-0.2,13.3-5.9,22-17.2c8.6-11.3,13-26,13-44V118
		c0-55.8,29.7-83.8,89-83.8c4.6,0,6.9,2.3,6.9,6.9v27.6c0,4.6-2.3,6.9-6.9,6.9c-15.5,0-26.9,3.6-33.9,10.9
		c-7.1,7.3-10.6,19-10.6,35.3v56.2c0,14.1-2.9,26.9-8.8,38.2c-5.8,11.3-11.6,19.1-17.2,23.3l-8.5,6.9v18
		c14.8,9.9,25.1,24.2,30.8,42.9c2.5,7.8,3.7,16.1,3.7,24.9v59.4c0,16.3,3.4,27.8,10.3,34.7s18.3,10.3,34.2,10.3
		C137.7,436.6,140,438.9,140,443.5z"/>
</g>
</svg>
