<?xml version="1.0" encoding="utf-8"?>
<!-- Generator: Adobe Illustrator 21.0.0, SVG Export Plug-In . SVG Version: 6.00 Build 0)  -->
<svg version="1.1" id="Layer_1" xmlns="http://www.w3.org/2000/svg" xmlns:xlink="http://www.w3.org/1999/xlink" x="0px" y="0px"
	 viewBox="0 0 512 512" style="enable-background:new 0 0 512 512;" xml:space="preserve">
<g>
	<path d="M293.7,162.2c3.1-20.5,10.6-38.1,21.6-54.5c7.6-11.5,16.6-21.6,27.1-30.3c23.6-19.4,50-31.9,80.8-34.6
		c19.4-1.7,37.9,0.5,54.7,10.6C493.8,63,504,77,508.6,95c7,28,2,55.1-5.3,82.1c-7.3,26.8-17.8,52.4-30.6,77.2
		c-17.7,34.2-39.2,65.6-63.4,95.5c-18.1,22.4-37.5,43.7-58.2,63.8c-23.8,23-48.4,45-75.9,63.6c-10.9,7.4-22.4,12.5-36,12.5
		c-17.4,0.1-31.6-7.2-44.6-17.7c-18.5-15-29.9-34.6-37.6-56.7c-9.2-26.3-17.5-53-25.8-79.7c-10.3-33.2-20-66.6-30.5-99.5
		c-5.9-18.6-12.2-37.2-19.8-55.3c-5.2-12.4-16-12.3-26.6-9c-11.4,3.6-21.1,10.1-30.8,16.8c-2.9,1.9-4.4,1.8-6.6-1.1
		c-4.9-7-10.1-13.6-15.6-20.3c-1.8-2.4-1.8-3.8,0.1-6c28.1-32.5,58.8-62.1,93.8-87C112.5,61.9,130.8,51,152,47
		c22.6-4.3,37.4,3.3,49.7,22.6c12.8,20.1,17.3,43.1,22.1,65.9c5.9,28,8.6,56.5,15.6,84.3c7.5,29.7,14.1,59.6,26.2,88
		c1,2.4,2.4,4.5,3.5,6.8c6.7,12.6,15.7,13.7,26.1,3.9c11.8-11.1,21.1-24,29.9-37.5c11.4-17.4,22.3-35.1,31.1-54
		c7.1-15.1,11.3-30.9,7.3-48c-5.5-23.4-25.4-32.1-46.1-26.6C309.3,154.5,301.8,158,293.7,162.2z"/>
</g>
</svg>
