<?xml version="1.0" encoding="utf-8"?>
<!-- Generator: Adobe Illustrator 21.0.0, SVG Export Plug-In . SVG Version: 6.00 Build 0)  -->
<svg version="1.1" id="Layer_1" xmlns="http://www.w3.org/2000/svg" xmlns:xlink="http://www.w3.org/1999/xlink" x="0px" y="0px"
	 viewBox="0 0 512 512" style="enable-background:new 0 0 512 512;" xml:space="preserve">
<g>
	<path d="M255.3,67.8c23.1,0,46.1-0.4,69.2,0.1c29.3,0.6,58.6,1.7,87.9,3.1c12.1,0.6,24.4,0.9,36.5,3.3
		c28.6,5.5,45.6,23.1,53.5,50.9c4.2,14.8,5.7,29.9,7,45.1c3.6,40.8,2.9,81.7,1.8,122.5c-0.6,24.1-1.6,48.5-7.7,72.1
		c-2.5,9.7-5.5,19.3-11.1,27.8c-10.2,15.4-24.8,24.1-42.8,27.4c-15.4,2.9-31,3.2-46.5,3.9c-28.8,1.3-57.6,1.9-86.4,2.6
		c-34.1,0.9-68.2,0.7-102.2,0.4c-27.6-0.3-55.3-0.9-82.9-2c-23.3-0.9-46.7-1.3-69.7-5.8c-12.7-2.4-24-7.7-33.8-16.5
		c-9.2-8.3-13.8-19.1-17.3-30.5c-7.4-24.4-7.9-49.7-9.5-74.9c-1.7-29.5-1.2-59.1-0.5-88.5c0.6-24.8,1.7-49.8,6.9-74.2
		c3.1-14.5,7.2-28.8,17.7-39.9C38.2,80.8,54.7,74.3,73.4,73c22.3-1.5,44.7-2.5,67-3.5C178.6,67.9,217,67.4,255.3,67.8z M339.9,242.1
		c-0.4-1.2-1.5-1.4-2.3-1.8c-23.9-12.6-48-25.3-72-37.9c-19-10-38.1-20.1-57.1-30.1c-5.3-2.7-5.4-2.6-5.4,3.5c0,43.9,0,87.8,0,131.8
		c0,0.8,0,1.7,0,2.5c-0.1,2.6,0.9,3.5,3.4,2.1c3-1.6,5.9-3.3,9-4.9c40.1-20.8,80.3-41.6,120.4-62.4
		C337.3,244,339.1,243.7,339.9,242.1z"/>
</g>
</svg>
