<?xml version="1.0" encoding="utf-8"?>
<!-- Generator: Adobe Illustrator 21.0.0, SVG Export Plug-In . SVG Version: 6.00 Build 0)  -->
<svg version="1.1" id="Layer_1" xmlns="http://www.w3.org/2000/svg" xmlns:xlink="http://www.w3.org/1999/xlink" x="0px" y="0px"
	 viewBox="0 0 512 512" style="enable-background:new 0 0 512 512;" xml:space="preserve">
<g>
	<path d="M225.2,335.7c-1.5,4.2-1.9,8.2-2.8,12.1c-4,16-7,32.1-10.9,48.1c-2.9,12.1-6.1,24.3-10.4,36.1
		c-3.7,10.4-8.6,20.4-13.6,30.3c-7.7,15.6-17.2,30.2-27.4,44.1c-1.7,2.3-2.6,6.4-6.2,5.5c-4.3-1.1-3.6-5.5-4-8.9
		c-2.9-22.1-3.8-44.1-3-66.3c0.4-11.6,0.8-23.4,3.7-34.7c2.9-11.5,5.1-23.2,7.8-34.7c1.9-8.1,3.8-16.5,5-24.8
		c1.1-7.8,4.2-15.3,5.4-23.1c1.6-10.5,4.6-20.6,6.7-31c1.9-9.4,4.4-18.7,6.3-28.1c1.3-6.4,2.6-12.7,4.4-19c0.8-3,0.2-6.3-1.3-9.7
		c-4.1-8.9-5-18.8-6.4-28.4c-1.8-12.3-0.8-24.7,2.1-36.7c4.6-18.4,11.9-35.3,28.9-46.3c18.8-12.1,45.3-6.6,53.7,15.5
		c5.3,14.2,4.2,28.3,2.1,42.7c-1.7,12.5-5.5,24.5-8.9,36.5c-2.7,9.3-5.7,18.5-8,27.9c-1.8,7.6-5.3,15.1-4.9,23.3
		c0.2,4.5-0.8,8.8-0.5,13.5c1.1,18.2,11.5,29.7,26.7,36.6c8.5,3.9,18.4,4.1,28.4,1.5c10.5-2.6,19.1-7.5,27.2-13.9
		c9.3-7.3,15.6-17.1,21.7-26.8c6.3-10.1,10.5-21.3,14-32.6c4.6-14.8,7.7-30.2,9.9-45.7c1.6-12.2,1.6-24.3,1.9-36.4
		c0.5-22.3-5.2-43.1-15.9-62.2c-6.6-11.9-16.5-21.2-27.8-29.5c-9.5-6.8-20-10.4-30.3-14.7c-3.5-1.5-7.4-1.7-11.1-2.6
		c-12-2.9-24.4-2.7-36.6-2.2c-15,0.6-29.6,3.9-43.5,9.6c-14.7,6.1-28,14.7-39.3,25.8c-11.9,11.1-21.2,24.3-28.6,39
		c-5.7,11.6-9.9,24-11.8,36.5c-2.3,15.6-4.2,31.2-1.2,47.3c1.8,10.3,5.1,19.9,9.3,29.3c1.9,4.4,5,8.3,8.2,11.9
		c3.8,4.2,4.4,8.7,3.4,13.6c-1.7,8.5-3.9,17.1-6,25.5c-1.6,6.5-9,9.5-15.3,6.3c-19.1-9.9-32.7-24.8-41.3-44.5
		C77,233,72.6,214,72.4,194c-0.1-14-0.9-28.2,2.3-41.9c2.5-11.1,5.5-22,9.6-32.6c5.2-13.6,12.1-26,20-38.1
		c11.8-18.1,27-33,44.5-45.6c13.3-9.7,27.9-17.6,43.2-23.1c9.7-3.5,19.6-6,29.8-8.1c18.2-3.7,36.4-5,54.7-4.4
		c9.9,0.3,19.5,2.7,29.3,4.2c13.2,2,25.2,7,37.2,12.2c8,3.5,15.7,8,23,13c11.6,7.8,22,17.1,31.2,27.4c11,12.2,19.5,26,26.5,41
		c3.5,7.2,5.8,14.8,9,22.2c1.4,3.2,1.8,7,2.3,10.6c0.9,5.9,1.6,12,2.8,17.7c2.5,12,1.6,23.9,1.2,35.7c-0.3,10.1-1.1,20.2-3.5,30.2
		c-1.1,4.7-0.8,9.5-2,14.3c-2,7.8-3.9,15.8-6,23.6c-3.3,12.2-8,23.8-13.6,35c-12,24.2-27.9,45.3-50.5,60.9
		c-8,5.5-16.4,10.4-25.4,13.9c-19.9,7.6-40.8,11-61.8,6.8c-19.4-3.9-36.1-13.3-48.1-29.9C227.6,337.5,226.5,336.8,225.2,335.7z"/>
</g>
</svg>
