<?xml version="1.0" encoding="utf-8"?>
<!-- Generator: Adobe Illustrator 21.0.0, SVG Export Plug-In . SVG Version: 6.00 Build 0)  -->
<svg version="1.1" id="Layer_1" xmlns="http://www.w3.org/2000/svg" xmlns:xlink="http://www.w3.org/1999/xlink" x="0px" y="0px"
	 viewBox="0 0 512 512" style="enable-background:new 0 0 512 512;" xml:space="preserve">
<g>
	<path d="M511.9,256c0,36.9,0.1,73.9,0,110.9c-0.2,53.7-25.2,93.4-69.8,121.4c-26.1,16.3-55.1,23.5-85.8,23.5
		c-67.3,0-134.4,0.3-201.7-0.1c-46.7-0.3-87-16.8-118.9-51.5C16,438.8,4.3,413.6,0.9,384.4c-0.7-6.2-0.8-12.3-0.8-18.5
		c0-73.6-0.1-147.1,0-220.7C0.4,91.4,25.3,51.7,69.9,23.6C96.2,7.2,125.3,0.1,156.3,0.1c67.1,0,134.1-0.3,201.2,0.1
		c46.9,0.3,87.3,16.9,119.2,51.8c19.5,21.4,31.2,46.6,34.5,75.5c1.3,11.3,0.7,22.7,0.8,33.9C512,193.1,511.9,224.5,511.9,256z
		 M38.3,256c0,37.9-0.1,75.6,0,113.5c0.1,26,9.6,48.4,27.3,67c23.8,24.9,53.6,36.9,87.7,37.1c67.8,0.4,135.5,0.1,203.3,0.1
		c21.9,0,42.7-4.7,61.7-15.7c35.5-20.3,55.5-50.2,55.5-92.1c0-74.5,0-148.9,0-223.4c0-25.8-9.4-48.1-27-66.6
		c-23.6-25-53.4-37.2-87.5-37.5c-68.5-0.5-136.9-0.2-205.4-0.2c-21.4,0-41.6,5.1-60.2,15.6c-35.4,20.4-55.5,50.4-55.4,92.2
		C38.3,182.7,38.3,219.4,38.3,256z"/>
	<path d="M256.4,365.4c-66.7,0-120.1-53.2-120-119.7c0.1-64.7,54.3-117.7,120.4-117.6c66.4,0,120.1,53.3,120,119.2
		C376.7,312.4,322.7,365.4,256.4,365.4z M256.4,327.2c45.3,0,82.2-36,82.2-80.3c0-44.5-36.6-80.7-81.8-80.7
		c-45.3,0-82.2,36-82.2,80.3C174.5,291,211.2,327.2,256.4,327.2z"/>
	<path d="M365.4,118.4c0-14.7,11.2-26.4,25.3-26.4c14,0,25.3,11.9,25.3,26.4c0,14.3-11.2,26.1-25.1,26.2
		C376.9,144.7,365.4,133,365.4,118.4z"/>
</g>
</svg>
