<?xml version="1.0" encoding="utf-8"?>
<!-- Generator: Adobe Illustrator 21.0.0, SVG Export Plug-In . SVG Version: 6.00 Build 0)  -->
<svg version="1.1" id="Layer_1" xmlns="http://www.w3.org/2000/svg" xmlns:xlink="http://www.w3.org/1999/xlink" x="0px" y="0px"
	 viewBox="0 0 512 512" style="enable-background:new 0 0 512 512;" xml:space="preserve">
<g>
	<path d="M6,257c0-30.2,0-60.3,0-90.5C6.2,94.6,55.6,30,124.9,10.7c16-4.4,32.3-6.4,48.8-6.5c25.5-0.2,51-0.2,76.5,0
		c37.4,0.3,71.6,10.6,101.4,33.6c36.4,28.1,57.7,65,63.7,110.7c1,7.6,0.2,15.3,1.6,22.9c2.8,15.3,16,26.6,31.6,26.7c9,0.1,18,0,27,0
		c20.5,0,34.6,14,34.6,34.5c0,37.8,0.6,75.7-0.1,113.5c-1.2,64.8-30.8,113.1-87.2,144.6c-20.4,11.4-42.7,17.4-66.2,18.5
		c-27.6,1.3-55.3,0.4-82.9,0.6c-33.8,0.2-67.7,0.1-101.5,0c-37.5-0.1-71.6-10.6-101.4-33.6c-35-27-56.2-62.5-62.8-106.4
		c-1.5-8.5-2-17.1-2-25.8C6.1,315,6,286,6,257z M258.2,379.9c30.7,0,61.3,0,92,0c5,0,10-0.7,14.5-3.1c13.4-7,19.5-20.2,16-34.1
		c-3.3-13.2-15.5-22.5-30.1-22.5c-61.3-0.1-122.6,0-183.9,0c-7.5,0-14.4,2.2-20.3,7.1c-9.5,8-13.1,21.1-9,32.6
		c4.2,11.9,15.4,20,28.3,20C196.6,380,227.4,379.9,258.2,379.9z M212.1,199.2c15.2,0,30.3,0,45.5,0c2.8,0,5.7,0,8.4-0.7
		c15.8-3.9,26-18.6,23.9-34.4c-2.2-16.4-17-27.5-31.4-27.3c-31,0.4-62,0.1-92.9,0.1c-2.3,0-4.6,0.1-6.9,0.6
		c-17.1,4.3-25.6,19.3-24.3,32.8c1.6,17.4,14.5,28.7,31.8,28.8C181.4,199.2,196.8,199.2,212.1,199.2z"/>
</g>
</svg>
