<?xml version="1.0" encoding="utf-8"?>
<!-- Generator: Adobe Illustrator 21.0.0, SVG Export Plug-In . SVG Version: 6.00 Build 0)  -->
<svg version="1.1" id="Layer_1" xmlns="http://www.w3.org/2000/svg" xmlns:xlink="http://www.w3.org/1999/xlink" x="0px" y="0px"
	 viewBox="0 0 512 512" style="enable-background:new 0 0 512 512;" xml:space="preserve">
<g>
	<path d="M214.3,4.8c-1.1,0.1-2.2,0.1-3.4,0.1c-2.6-0.1-3.4,1.6-3.7,3.8c-1.1,9.4-2.8,18.7-4.9,27.9c-3.5,15.6-8.7,30.4-16.5,44.3
		c-9,15.9-20.8,29.3-35.2,40.3c-8.7,6.6-18.2,12.3-28.4,16c-5.3,2-5.3,4.4-5.3,8.5c0.1,20.8,0.2,41.7,0,62.5c0,3.6,1,4.9,4.8,4.8
		c12.3-0.2,24.7-0.1,37-0.1c7.4,0,7.3,0,7.4,7.1c0.5,67.5-1,135,1.9,202.4c0.3,7.4,2.3,14.2,5,20.9c8.3,20.7,23.2,35.7,41.5,47.7
		c19.6,12.9,41.9,17.4,64.6,19.7c14,1.4,28.1-0.5,42.1-1.8c0.5-0.1,1,0,1.5-0.2c7.2-2.6,14.9-3,22.2-5.4c7.4-2.4,14.9-4.5,22-7.5
		c7.7-3.2,15.6-6.3,23-10.4c2.6-1.4,3.9-2.5,3.9-5.3v-72.5c0-1.1,0.4-2.5-0.9-3.1c-1.3-0.6-2.1,0.6-3,1.3c-9,6.6-18.6,12-29.1,15.5
		c-19.1,6.4-38.4,9.1-58,1.9c-14.7-5.4-25.3-15.2-27.4-31.1c-1.4-10.6-2.6-21.4-2.4-32.3c0.4-21.5,0.1-43,0.1-64.5
		c-0.1,0-0.1,0-0.3,0c0-25.3,0.1-50.7-0.1-76c-0.1-4.9,0.9-6.5,6.2-6.5c31.7,0.2,63.3,0,95,0.2c4.6,0,6.1-1.2,6.1-5.9
		c-0.2-22.8-0.1-45.7-0.1-68.5c0-6.2-0.2-6.4-6.5-6.4c-31.5,0-63-0.1-94.5,0.1c-4.7,0-6.3-1-6.2-6c0.4-14,0.1-28,0.1-42
		c0-24.8-0.1-49.7-0.1-74.5c0-2.4,0.3-4.6-2.7-4.9c-0.3,0-0.5-0.1-0.9-0.1c-2.2,0-4.5,0-6.7,0.1c-1.8,0-3.5,0-5.3,0H214.3z"/>
</g>
</svg>
