<?xml version="1.0" encoding="utf-8"?>
<!-- Generator: Adobe Illustrator 21.0.0, SVG Export Plug-In . SVG Version: 6.00 Build 0)  -->
<svg version="1.1" id="Layer_1" xmlns="http://www.w3.org/2000/svg" xmlns:xlink="http://www.w3.org/1999/xlink" x="0px" y="0px"
	 viewBox="0 0 528 528" style="enable-background:new 0 0 528 528;" xml:space="preserve">
<path d="M454,121.5c0,0-54.4-42.6-118.8-47.5l-5.8,11.6c58.1,14.2,84.8,34.6,112.7,59.7c-48-24.5-95.5-47.5-178.1-47.5
	s-130.1,23-178.1,47.5c27.9-25,59.6-47.7,112.7-59.7L192.8,74C125.3,80.4,74,121.5,74,121.5S13.2,209.7,2.8,382.8
	C64,453.4,157.1,454,157.1,454l19.5-25.9c-33-11.5-70.3-32-102.6-69.1c38.5,29.1,96.5,59.4,190,59.4s151.5-30.3,190-59.4
	c-32.2,37.1-69.6,57.6-102.6,69.1l19.5,25.9c0,0,93.1-0.6,154.4-71.3C514.8,209.7,454,121.5,454,121.5z M186.8,335.3
	c-23,0-41.6-21.3-41.6-47.5s18.6-47.5,41.6-47.5s41.6,21.3,41.6,47.5S209.8,335.3,186.8,335.3z M341.2,335.3
	c-23,0-41.6-21.3-41.6-47.5s18.6-47.5,41.6-47.5c23,0,41.6,21.3,41.6,47.5S364.1,335.3,341.2,335.3z"/>
</svg>
