<?xml version="1.0" encoding="utf-8"?>
<!-- Generator: Adobe Illustrator 21.0.0, SVG Export Plug-In . SVG Version: 6.00 Build 0)  -->
<svg version="1.1" id="Layer_1" xmlns="http://www.w3.org/2000/svg" xmlns:xlink="http://www.w3.org/1999/xlink" x="0px" y="0px"
	 viewBox="0 0 512 512" style="enable-background:new 0 0 512 512;" xml:space="preserve">
<g id="surface1">
	<path d="M288.6,0.1c-5.5-0.5-11.7,0.6-17.2,2.5c-22.2,7.5-33.9,31.3-26.5,53.5l17.8,52.3l-100.9,33.8l-16.6-50.4
		c-7.5-22.2-31.3-33.9-53.5-26.5c-22.3,7.5-34.5,31.3-27.1,53.5l16.6,49.8L29,186.5C6.8,194-4.9,218.4,2.5,240.6
		s31.3,33.9,53.5,26.5l52.3-17.2l33.8,100.3l-50.4,16.6c-22.2,7.5-33.9,31.3-26.5,53.5c7.5,22.3,31.3,34.5,53.5,27.1l49.8-16.6
		l17.8,52.3c7.5,22.2,31.9,33.9,54.1,26.5s33.9-31.3,26.5-53.5l-17.2-52.3l100.3-33.8l16.6,50.4c7.5,22.2,31.3,33.9,53.5,26.5
		c22.3-7.5,34.5-31.3,27.1-53.5l-16.6-49.8l52.3-17.8c22.2-7.5,33.9-31.9,26.5-54.1c-7.5-22.2-31.3-33.9-53.5-26.5l-52.3,17.2
		l-33.8-100.3l50.4-16.6c22.2-7.5,33.9-31.3,26.5-53.5c-7.5-22.2-31.3-34.5-53.5-27.1l-49.8,16.6L325.5,29
		C319.9,12.3,305.1,1.4,288.6,0.1z M289.2,189l33.8,100.3l-100.3,33.8l-33.8-100.3L289.2,189z"/>
</g>
</svg>
