<?xml version="1.0" encoding="utf-8"?>
<!-- Generator: Adobe Illustrator 21.0.0, SVG Export Plug-In . SVG Version: 6.00 Build 0)  -->
<svg version="1.1" id="Layer_1" xmlns="http://www.w3.org/2000/svg" xmlns:xlink="http://www.w3.org/1999/xlink" x="0px" y="0px"
	 viewBox="0 0 512 512" style="enable-background:new 0 0 512 512;" xml:space="preserve">
<path d="M494.1,310.4c3.6-16.6,5.6-33.9,5.6-51.7c0-133-107.8-240.8-240.8-240.8c-14,0-27.8,1.2-41.2,3.5C196.2,7.9,170.7,0,143.4,0
	C66.3,0,3.8,62.5,3.8,139.7c0,25.8,7,49.9,19.2,70.6c-3.2,15.6-4.9,31.8-4.9,48.4c0,133,107.8,240.8,240.8,240.8
	c15.1,0,29.8-1.4,44.1-4c19.7,10.6,42.1,16.6,66,16.6c77.1,0,139.7-62.5,139.7-139.7C508.7,350.1,503.4,329.1,494.1,310.4z
	 M382.4,373.8c-11.1,15.8-27.6,28.3-48.9,37.1c-21.1,8.8-46.4,13.2-75.3,13.2c-34.6,0-63.6-6.1-86.2-18.1
	c-16.2-8.7-29.5-20.6-39.7-35.2c-10.2-14.7-15.4-29.4-15.4-43.5c0-8.8,3.4-16.5,10.1-22.7c6.6-6.2,15-9.3,25.1-9.3
	c8.3,0,15.4,2.5,21.2,7.4c5.5,4.7,10.3,11.6,14.1,20.6c4.3,9.8,8.9,18,13.8,24.5c4.7,6.3,11.5,11.5,20.2,15.6
	c8.7,4.1,20.5,6.2,35,6.2c19.9,0,36.2-4.3,48.5-12.6c12-8.2,17.8-18,17.8-30c0-9.5-3.1-17-9.3-22.9c-6.6-6.1-15.2-10.9-25.7-14.2
	c-10.9-3.4-25.8-7.1-44.2-10.9c-25-5.4-46.2-11.7-63.1-18.9c-17.3-7.4-31.2-17.5-41.4-30.3c-10.3-12.9-15.6-29.2-15.6-48.3
	c0-18.2,5.5-34.6,16.4-48.7c10.8-14,26.5-25,46.7-32.4c20-7.4,43.8-11.1,70.7-11.1c21.5,0,40.4,2.5,56.2,7.4
	c15.9,5,29.3,11.6,39.8,19.8c10.6,8.3,18.5,17.1,23.4,26.3c5,9.3,7.5,18.5,7.5,27.5c0,8.6-3.3,16.4-9.9,23.2
	c-6.6,6.9-14.9,10.3-24.7,10.3c-8.9,0-15.9-2.2-20.7-6.5c-4.5-4-9.2-10.2-14.4-19.1c-6-11.4-13.3-20.4-21.6-26.7
	c-8.1-6.2-21.6-9.3-40.2-9.3c-17.3,0-31.3,3.5-41.7,10.3c-10,6.6-14.9,14.1-14.9,23.1c0,5.5,1.6,10.1,4.8,14
	c3.4,4.2,8.2,7.9,14.3,10.9c6.3,3.2,12.9,5.7,19.4,7.5c6.7,1.9,17.9,4.6,33.3,8.2c19.5,4.2,37.4,8.9,53.2,13.9
	c16,5.1,29.9,11.5,41.2,18.8c11.5,7.5,20.7,17.2,27.2,28.7c6.5,11.6,9.8,25.8,9.8,42.4C399.3,339.9,393.6,358,382.4,373.8z"/>
</svg>
