<?xml version="1.0" encoding="utf-8"?>
<!-- Generator: Adobe Illustrator 21.0.0, SVG Export Plug-In . SVG Version: 6.00 Build 0)  -->
<svg version="1.1" id="Layer_1" xmlns="http://www.w3.org/2000/svg" xmlns:xlink="http://www.w3.org/1999/xlink" x="0px" y="0px"
	 viewBox="0 0 512 512" style="enable-background:new 0 0 512 512;" xml:space="preserve">
<g>
	<path d="M0,50.8c2.5,0,1.7-2,1.9-3.3c3-20.9,13.8-36.1,34-42.6c16.2-5.2,33.1-4.6,48.3,4c9.5,5.5,16.7,14.1,20.6,24.7
		c2.8,7.9,4.9,16,4,24.4c-2.1,21.1-11.6,38.6-34.8,46.7c-17.5,6-34.6,3.8-50.6-5.7c-1-3.6-3.5-5.4-7.2-6l0,0
		c-0.1-1.4-0.3-2.8-2.2-2.8C6.8,82.1,3.3,72.3,1.9,61.7c-0.2-1.2,0.3-2.9-1.9-2.8C0,56.2,0,53.6,0,50.8z"/>
	<path d="M277.3,215.2c4.3-2.6,6-6.4,8.3-9.6c11-15.1,24.6-26.8,41.5-35.2c23.2-11.4,47.8-12.6,72.5-10.3c19,1.7,37.1,8.2,53.5,18.6
		c19.5,12.5,33.5,29.8,43.1,50.6c5.8,12.6,9.7,26,12,39.9c2.1,13,3.7,25.8,3.7,39c-0.1,65.5-0.1,131,0.1,196.5
		c0,4.6-1.3,5.8-5.8,5.7c-30.9-0.2-61.8-0.2-92.7,0c-4.5,0-5.5-1.3-5.5-5.6c0.1-61.8,0.4-123.6-0.1-185.4c-0.1-14-2-27.9-9.3-40.7
		c-6.4-11.3-15.4-19.3-27.2-24c-15.8-6.2-32.1-7.5-48.7-2.8c-16.7,4.6-28.3,15.6-36.6,30.5c-4.6,8.4-6.2,17.1-7.6,26.5
		c-1.3,10.1-1.1,19.9-1.1,29.9c-0.2,55.1-0.2,110.1,0,165.2c0,5-1.2,6.4-6.3,6.3c-30.5-0.3-61.2-0.2-91.7,0c-4.2,0-5.7-1.3-5.6-5.2
		c0.1-2.8,0.3-5.6,0.3-8.5c0-106.3,0.1-212.6-0.1-318.9c0-4.4,0.9-6,5.7-6c30.7,0.2,61.5,0.2,92.2,0c4.1,0,5.5,1,5.4,5.3
		C277.1,189.5,277.3,201.9,277.3,215.2z"/>
	<path d="M108.8,174.9c0,3.5,0.1,7.1,0.1,10.6c0,106.1,0,212.2,0,318.4c0,6.4,0,6.4-6.5,6.4c-32,0-64.2,0-96.2,0
		c-0.1-2.5-0.2-5-0.2-7.6c0-79.4,0-158.7,0-238.1c0-28.3,0.1-56.7-0.1-85c0-3.6,0.9-4.9,4.7-4.9C43.3,174.9,76.1,174.8,108.8,174.9z
		"/>
	<path d="M108.8,174.9c-32.7,0-65.4,0-98.1-0.2c-3.8,0-4.7,1.2-4.7,4.9c0.1,28.3,0,56.6,0,85c0,79.4,0,158.7,0,238.1
		c0,2.5,0.1,5,0.2,7.6c-1.7,0.1-3-0.3-3-2.3c0-1.3,0-2.7,0-4c0-107.6,0-215.1,0-322.7c0-7.7,0.7-8.4,8.3-8.4c30.7,0,61.5,0,92.1,0.1
		C105.3,172.8,108,171.4,108.8,174.9z"/>
	<path d="M16.2,93c3.6,0.6,6.1,2.4,7.2,6C20.3,97.9,17.9,95.9,16.2,93z"/>
	<path d="M14,90.2c1.9,0,2,1.4,2.2,2.8C14.1,93.1,14.1,91.7,14,90.2z"/>
</g>
</svg>
