<?xml version="1.0" encoding="utf-8"?>
<!-- Generator: Adobe Illustrator 21.0.0, SVG Export Plug-In . SVG Version: 6.00 Build 0)  -->
<svg version="1.1" id="Layer_1" xmlns="http://www.w3.org/2000/svg" xmlns:xlink="http://www.w3.org/1999/xlink" x="0px" y="0px"
	 viewBox="0 0 512 512" style="enable-background:new 0 0 512 512;" xml:space="preserve">
<g>
	<path d="M0,420.8c56.8,5.2,107.6-9,153.6-43.5c-7.1-1.6-13.6-1.6-19.8-3.1c-36.2-8.6-61.2-30.4-75.9-64.4c-0.7-1.7-2.5-3.9-0.9-5.6
		c1.2-1.3,3.5-0.2,5.3,0c12.8,1.3,25.5,0.9,38.1-2c0.2-2.2-1.4-2-2.6-2.4c-31.1-8.3-53.7-26.9-68.3-55.6
		c-6.7-13.2-10.3-27-10.7-41.8c-0.2-5.8,0.1-5.9,5.5-3.3c12.8,6.1,26.2,9.5,41.5,10.2c-7-5.7-13.3-10.6-18.7-16.6
		c-16.3-18.1-25.4-39.3-27.4-63.8C18,109,22.2,90.5,30.8,72.6c1.9-4,3.6-3.6,6.1-0.7c16.9,20.7,36.7,38.2,58.5,53.4
		c16.2,11.4,33.5,20.8,51.6,28.8c23.9,10.4,48.8,17.4,74.5,21.6c8.1,1.3,16.4,1.6,24.6,2.4c4.2,0.4,5.3-0.8,4.5-5.1
		c-4.2-21.9-1.3-43.2,8.2-63.2c16.3-34.1,43.7-54.7,80.9-60.2c33-4.9,62.8,4.6,87.4,27.8c3.8,3.5,7.1,4.5,12.2,3.1
		c19.9-5.1,38.8-12.3,56.7-22.4c0.5-0.3,1.1-0.4,2.9-1.1c-8.3,24.4-23,42.5-43.6,56.3c4.8,0.9,18.9-1.6,28.6-4.7
		c9.3-2.9,18.7-5.6,27.6-9.5c1.2,1.3,0.1,2-0.4,2.7c-11.9,16.7-25.4,31.8-41.7,44.4c-2.2,1.7-4.4,3.6-6.7,5.3
		c-1.7,1.2-1.8,2.7-1.7,4.5c0.7,18.5-0.6,36.8-3.2,54.9c-2.7,18.6-7.4,36.6-13.6,54.3c-5.1,14.5-11.1,28.6-18.1,42.3
		c-17.5,33.7-40.3,63.3-68.8,88.5c-30.3,26.8-64.8,46-103.3,58c-24,7.5-48.7,11.9-73.9,13.2c-19.5,1-38.8,0.7-58.1-1.7
		c-27.6-3.3-54.1-10.8-79.7-21.8c-13.1-5.6-25.4-12.3-37.8-19.3C2.6,423.8,0.9,423,0,420.8z"/>
</g>
</svg>
